# xmcd CD database file
#
# Track frame offsets:
#	150
#	15595
#	39560
#	62060
#	84437
#	102370
#	127552
#	145095
#	167942
#	183687
#	212005
#	234387
#
# Disc length: 3382 seconds
#
# Revision: 2
# Processed by: cddbd v1.5.2PL0 Copyright (c) Steve Scherf et al.
# Submitted via: CDex 1.51
#
DISCID=9a0d340c
DTITLE=Muddy Waters - I'm Ready (Remaster)
DYEAR=1900
DGENRE=Blues
TTITLE0=I'm Ready
TTITLE1=33 Years
TTITLE2=Who Do You Trust
TTITLE3=Copper Brown
TTITLE4=(I'm Your) Hoochie Coochie Man
TTITLE5=Mamie
TTITLE6=Rock Me
TTITLE7=Screamin' And Cryin'
TTITLE8=Good Morning Little School Gir
TTITLE9=No Escape From The Blues
TTITLE10=That's Alright
TTITLE11=Lonely Man Blues
EXTD=
EXTT0=
EXTT1=
EXTT2=
EXTT3=
EXTT4=
EXTT5=
EXTT6=
EXTT7=
EXTT8=
EXTT9=
EXTT10=
EXTT11=
PLAYORDER=
